<?xml version="1.0" encoding="UTF-8" standalone="no"?>
<!-- Created with Inkscape (http://www.inkscape.org/) -->

<svg
   xmlns:dc="http://purl.org/dc/elements/1.1/"
   xmlns:cc="http://creativecommons.org/ns#"
   xmlns:rdf="http://www.w3.org/1999/02/22-rdf-syntax-ns#"
   xmlns:svg="http://www.w3.org/2000/svg"
   xmlns="http://www.w3.org/2000/svg"
   xmlns:sodipodi="http://sodipodi.sourceforge.net/DTD/sodipodi-0.dtd"
   xmlns:inkscape="http://www.inkscape.org/namespaces/inkscape"
   width="210mm"
   height="297mm"
   viewBox="0 0 210 297"
   version="1.1"
   id="svg8"
   inkscape:version="0.92.0 r15299"
   sodipodi:docname="danslo logo 2.svg">
  <defs
     id="defs2">
    <inkscape:path-effect
       effect="ruler"
       id="path-effect9128"
       is_visible="true"
       unit="px"
       mark_distance="20"
       mark_length="14"
       minor_mark_length="7"
       major_mark_steps="5"
       shift="0"
       offset="0"
       mark_dir="left"
       border_marks="both" />
    <inkscape:path-effect
       effect="powerstroke"
       id="path-effect9126"
       is_visible="true"
       offset_points=""
       sort_points="true"
       interpolator_type="CubicBezierFit"
       interpolator_beta="0.2"
       start_linecap_type="butt"
       linejoin_type="extrp_arc"
       miter_limit="4"
       end_linecap_type="butt" />
    <inkscape:path-effect
       effect="perspective-envelope"
       up_left_point="-321.2442,130.59928"
       up_right_point="-263.03379,130.59928"
       down_left_point="-321.2442,148.20303"
       down_right_point="-263.03379,148.20303"
       id="path-effect9124"
       is_visible="true"
       deform_type="perspective"
       horizontal_mirror="false"
       vertical_mirror="false"
       overflow_perspective="false" />
    <inkscape:path-effect
       effect="lattice2"
       gridpoint0="-321.2442,130.59928"
       gridpoint1="-263.03379,130.59928"
       gridpoint2="-321.2442,148.20303"
       gridpoint3="-263.03379,148.20303"
       gridpoint4="-306.69159,130.59928"
       gridpoint5="-277.58639,130.59928"
       gridpoint6="-306.69159,148.20303"
       gridpoint7="-277.58639,148.20303"
       gridpoint8x9="-292.13899,130.59928"
       gridpoint10x11="-292.13899,148.20303"
       gridpoint12="-321.2442,135.00022"
       gridpoint13="-263.03379,135.00022"
       gridpoint14="-321.2442,143.80209"
       gridpoint15="-263.03379,143.80209"
       gridpoint16="-306.69159,135.00022"
       gridpoint17="-277.58639,135.00022"
       gridpoint18="-306.69159,143.80209"
       gridpoint19="-277.58639,143.80209"
       gridpoint20x21="-292.13899,135.00022"
       gridpoint22x23="-292.13899,143.80209"
       gridpoint24x26="-321.2442,139.40115"
       gridpoint25x27="-263.03379,139.40115"
       gridpoint28x30="-306.69159,139.40115"
       gridpoint29x31="-277.58639,139.40115"
       gridpoint32x33x34x35="-292.13899,139.40115"
       id="path-effect9122"
       is_visible="true"
       horizontal_mirror="false"
       vertical_mirror="false"
       live_update="true" />
  </defs>
  <sodipodi:namedview
     id="base"
     pagecolor="#ffffff"
     bordercolor="#666666"
     borderopacity="1.0"
     inkscape:pageopacity="0.0"
     inkscape:pageshadow="2"
     inkscape:zoom="1.4"
     inkscape:cx="-1093.2562"
     inkscape:cy="539.77171"
     inkscape:document-units="mm"
     inkscape:current-layer="text3694-9"
     showgrid="false"
     showborder="false"
     inkscape:window-width="1920"
     inkscape:window-height="1017"
     inkscape:window-x="1912"
     inkscape:window-y="32"
     inkscape:window-maximized="1" />
  <metadata
     id="metadata5">
    <rdf:RDF>
      <cc:Work
         rdf:about="">
        <dc:format>image/svg+xml</dc:format>
        <dc:type
           rdf:resource="http://purl.org/dc/dcmitype/StillImage" />
        <dc:title></dc:title>
      </cc:Work>
    </rdf:RDF>
  </metadata>
  <g
     inkscape:label="Layer 1"
     inkscape:groupmode="layer"
     id="layer1">
    <g
       aria-label="Danny Slocum"
       style="font-style:normal;font-variant:normal;font-weight:normal;font-stretch:normal;font-size:10.58333302px;line-height:6.61458349px;font-family:'Viner Hand ITC';-inkscape-font-specification:'Viner Hand ITC, Normal';font-variant-ligatures:normal;font-variant-caps:normal;font-variant-numeric:normal;font-feature-settings:normal;text-align:start;letter-spacing:0px;word-spacing:0px;writing-mode:lr-tb;text-anchor:start;fill:#000000;fill-opacity:1;stroke:none;stroke-width:0.26458332"
       id="text3694-9">
      <path
         style="font-style:normal;font-variant:normal;font-weight:normal;font-stretch:normal;font-size:10.58333302px;font-family:'Viner Hand ITC';-inkscape-font-specification:'Viner Hand ITC, Normal';font-variant-ligatures:normal;font-variant-caps:normal;font-variant-numeric:normal;font-feature-settings:normal;text-align:start;writing-mode:lr-tb;text-anchor:start;fill:#319f9b;fill-opacity:1;stroke-width:0.33211812"
         d="m -320.62702,128.27742 c 0.62722,0.21858 1.23135,0.50636 1.7899,0.86649 0.75094,0.38616 1.43474,0.95503 1.79967,1.73395 0.85732,1.68137 0.16704,3.89358 -1.41816,4.87795 -0.92441,0.47424 -1.68636,1.20188 -2.59553,1.70206 -0.48939,0.42907 -1.32939,0.22424 -1.0979,-0.53942 0.90124,-2.80247 0.84601,-5.79068 1.52202,-8.64103 z m -1.99178,-2.21385 h 1.6e-4 c -0.022,0.3328 0.0381,0.66599 0.15175,0.97828 0.33917,0.77254 0.57724,1.61223 0.46426,2.46273 0.0665,0.63996 0.0665,1.29263 -0.007,1.93542 -0.14994,1.35282 -0.36659,2.69998 -0.53176,4.04921 -0.54782,1.46279 -1.61671,2.67131 -2.15673,4.13756 -0.24423,0.73632 0.63289,0.34299 0.96808,0.23683 1.21484,-0.40713 1.92024,-1.5998 3.04681,-2.16373 0.62369,-0.2446 1.22082,-0.55012 1.76515,-0.94722 1.59857,-1.10546 3.0314,-2.7985 3.0815,-4.82953 0.0869,-1.09661 -0.54249,-2.07861 -1.24475,-2.86385 -1.45818,-1.55795 -3.45166,-2.58836 -5.53747,-2.9957 z"
         id="path8911"
         inkscape:connector-curvature="0" />
      <path
         style="font-style:normal;font-variant:normal;font-weight:normal;font-stretch:normal;font-size:10.58333302px;font-family:'Viner Hand ITC';-inkscape-font-specification:'Viner Hand ITC, Normal';font-variant-ligatures:normal;font-variant-caps:normal;font-variant-numeric:normal;font-feature-settings:normal;text-align:start;writing-mode:lr-tb;text-anchor:start;fill:#319f9b;fill-opacity:1;stroke-width:0.20908806"
         d="m -315.0494,134.76615 c 0.84159,0.75032 -0.5081,4.52223 1.63601,2.75837 0.16526,1.12701 -2.06637,2.54287 -2.06919,0.32714 -0.11863,-2.22628 -2.10086,3.20366 -2.44791,0.86366 0.32075,-1.57168 0.68923,-4.18293 2.88109,-3.94917 z m -1.00911,0.67368 c -1.21936,0.42783 -1.5516,4.49208 -0.23524,1.78883 0.21909,-0.44967 1.16649,-1.56044 0.23524,-1.78883 z"
         id="path8913"
         inkscape:connector-curvature="0"
         sodipodi:nodetypes="cccccccc" />
      <path
         style="font-style:normal;font-variant:normal;font-weight:normal;font-stretch:normal;font-size:10.58333302px;font-family:'Viner Hand ITC';-inkscape-font-specification:'Viner Hand ITC, Normal';font-variant-ligatures:normal;font-variant-caps:normal;font-variant-numeric:normal;font-feature-settings:normal;text-align:start;writing-mode:lr-tb;text-anchor:start;fill:#319f9b;fill-opacity:1;stroke-width:0.20908806"
         d="m -311.52145,135.02624 c 0.80972,0.53166 -1.1174,3.69883 0.48538,1.65196 0.48531,-1.11767 2.87375,-1.87529 1.79735,0.10673 -0.92483,1.89925 2.44696,0.43015 0.5726,1.72757 -1.38018,1.4703 -1.81719,-0.40314 -1.14113,-1.50561 -0.64811,-2.20445 -2.24041,3.22156 -2.67748,1.62034 0.54941,-0.94301 0.39835,-2.81749 -0.30043,-2.47992 0.38675,-0.41159 0.8589,-0.72895 1.26371,-1.12107 z"
         id="path8915"
         inkscape:connector-curvature="0"
         sodipodi:nodetypes="cccccccc" />
      <path
         style="font-style:normal;font-variant:normal;font-weight:normal;font-stretch:normal;font-size:10.58333302px;font-family:'Viner Hand ITC';-inkscape-font-specification:'Viner Hand ITC, Normal';font-variant-ligatures:normal;font-variant-caps:normal;font-variant-numeric:normal;font-feature-settings:normal;text-align:start;writing-mode:lr-tb;text-anchor:start;fill:#319f9b;fill-opacity:1;stroke-width:0.20908806"
         d="m -306.23344,135.02624 c 0.80975,0.53165 -1.11742,3.69884 0.48538,1.65196 0.48532,-1.1177 2.87381,-1.87525 1.79731,0.10676 -0.92492,1.89926 2.44706,0.43009 0.57264,1.72753 -1.3802,1.4703 -1.81715,-0.4031 -1.14122,-1.50562 -0.64808,-2.2044 -2.24043,3.2215 -2.67739,1.62035 0.54951,-0.94299 0.39846,-2.81749 -0.30035,-2.47991 0.38674,-0.41158 0.85887,-0.72892 1.26363,-1.12107 z"
         id="path8917"
         inkscape:connector-curvature="0"
         sodipodi:nodetypes="cccccccc" />
      <path
         style="font-style:normal;font-variant:normal;font-weight:normal;font-stretch:normal;font-size:10.58333302px;font-family:'Viner Hand ITC';-inkscape-font-specification:'Viner Hand ITC, Normal';font-variant-ligatures:normal;font-variant-caps:normal;font-variant-numeric:normal;font-feature-settings:normal;text-align:start;writing-mode:lr-tb;text-anchor:start;fill:#319f9b;fill-opacity:1;stroke-width:0.20908806"
         d="m -299.55692,141.43055 c 0.14855,1.09384 -1.87361,3.65426 -0.77616,1.21987 0.56727,-1.48642 1.9927,-4.82138 0.9385,-5.38739 -0.52989,1.50756 -3.36673,2.25759 -2.23895,-0.11605 0.67475,-1.26607 -1.44621,-0.82864 -0.0183,-1.68048 2.41525,-1.88878 -0.40918,3.56815 1.61873,1.92606 0.50718,-0.80432 2.55404,-3.48734 1.89236,-0.83812 -0.42656,1.63757 -0.79101,3.29873 -1.41623,4.87611 z"
         id="path8919"
         inkscape:connector-curvature="0"
         sodipodi:nodetypes="ccccccccc" />
      <path
         style="font-style:normal;font-variant:normal;font-weight:normal;font-stretch:normal;font-size:10.58333302px;font-family:'Viner Hand ITC';-inkscape-font-specification:'Viner Hand ITC, Normal';font-variant-ligatures:normal;font-variant-caps:normal;font-variant-numeric:normal;font-feature-settings:normal;text-align:start;writing-mode:lr-tb;text-anchor:start;fill:#319f9b;fill-opacity:1;stroke-width:0.33211812"
         d="m -290.30949,127.30592 c 2.18381,0.53194 -0.30065,5.39564 -0.9607,2.22513 -1.23303,0.34592 -4.65868,2.94052 -1.59513,3.05787 2.23577,-0.41362 4.75426,1.97286 3.07243,4.07169 -1.34536,1.59033 -3.99722,2.94197 -5.98394,1.8331 -0.6008,-1.26198 1.38384,-1.95163 1.05912,-0.24653 2.0921,0.36804 5.52133,-1.82975 3.86108,-4.18728 -0.75779,-1.87076 -5.59012,0.52214 -4.12356,-2.21901 1.61573,-1.45093 2.99095,-3.15293 4.6707,-4.53497 z"
         id="path8921"
         inkscape:connector-curvature="0"
         sodipodi:nodetypes="ccccccccc" />
      <path
         style="font-style:normal;font-variant:normal;font-weight:normal;font-stretch:normal;font-size:10.58333302px;font-family:'Viner Hand ITC';-inkscape-font-specification:'Viner Hand ITC, Normal';font-variant-ligatures:normal;font-variant-caps:normal;font-variant-numeric:normal;font-feature-settings:normal;text-align:start;writing-mode:lr-tb;text-anchor:start;fill:#319f9b;fill-opacity:1;stroke-width:0.20908806"
         d="m -286.24692,137.1406 c -0.54408,1.26462 -3.19093,1.88255 -2.17074,-0.23544 0.67525,-1.30438 0.47922,-2.9078 0.57421,-4.00877 0.93112,-1.27179 1.70357,-0.45449 0.89002,0.65784 -0.55726,1.38386 -1.53404,4.79799 0.70651,3.58631 z"
         id="path8923"
         inkscape:connector-curvature="0"
         sodipodi:nodetypes="cccccc" />
      <path
         style="font-style:normal;font-variant:normal;font-weight:normal;font-stretch:normal;font-size:10.58333302px;font-family:'Viner Hand ITC';-inkscape-font-specification:'Viner Hand ITC, Normal';font-variant-ligatures:normal;font-variant-caps:normal;font-variant-numeric:normal;font-feature-settings:normal;text-align:start;writing-mode:lr-tb;text-anchor:start;fill:#319f9b;fill-opacity:1;stroke-width:0.20908806"
         d="m -283.46993,134.3094 c 2.3312,0.75711 -1.05248,5.04342 -1.91471,3.79829 -0.54581,-1.44455 0.12607,-3.71472 1.91471,-3.79829 z m -0.2425,0.76324 c -2.0741,-0.0805 -0.68319,4.06017 0.085,1.32621 -0.10722,-0.35652 0.47084,-1.21227 -0.085,-1.32621 z"
         id="path8925"
         inkscape:connector-curvature="0"
         sodipodi:nodetypes="cccccc" />
      <path
         style="font-style:normal;font-variant:normal;font-weight:normal;font-stretch:normal;font-size:10.58333302px;font-family:'Viner Hand ITC';-inkscape-font-specification:'Viner Hand ITC, Normal';font-variant-ligatures:normal;font-variant-caps:normal;font-variant-numeric:normal;font-feature-settings:normal;text-align:start;writing-mode:lr-tb;text-anchor:start;fill:#319f9b;fill-opacity:1;stroke-width:0.20908806"
         d="m -279.14017,137.69064 c -1.10873,1.71056 -4.09504,0.91863 -3.04175,-1.29729 -0.41712,-1.23162 2.55405,-2.95862 2.07663,-1.59116 -1.94397,0.34442 -1.64781,4.44259 0.50056,2.72532 0.13676,-0.0632 0.49423,-0.10788 0.46456,0.16313 z"
         id="path8927"
         inkscape:connector-curvature="0"
         sodipodi:nodetypes="ccccc" />
      <path
         style="font-style:normal;font-variant:normal;font-weight:normal;font-stretch:normal;font-size:10.58333302px;font-family:'Viner Hand ITC';-inkscape-font-specification:'Viner Hand ITC, Normal';font-variant-ligatures:normal;font-variant-caps:normal;font-variant-numeric:normal;font-feature-settings:normal;text-align:start;writing-mode:lr-tb;text-anchor:start;fill:#319f9b;fill-opacity:1;stroke-width:0.20908806"
         d="m -276.79732,134.19854 c -0.51557,0.95981 -1.08519,4.77515 0.58326,2.28834 0.41164,-0.7261 2.5482,-2.84031 1.78512,-0.64977 0.634,0.84412 -0.75471,3.65693 -0.70409,1.63697 0.19786,-2.20457 -1.31688,-0.25881 -1.69403,0.62805 -2.42891,1.48677 -0.68267,-1.8749 -1.1621,-2.86163 -1.88961,0.10739 0.87816,-0.82684 1.19184,-1.04196 z"
         id="path8929"
         inkscape:connector-curvature="0"
         sodipodi:nodetypes="ccccccc" />
      <path
         style="font-style:normal;font-variant:normal;font-weight:normal;font-stretch:normal;font-size:10.58333302px;font-family:'Viner Hand ITC';-inkscape-font-specification:'Viner Hand ITC, Normal';font-variant-ligatures:normal;font-variant-caps:normal;font-variant-numeric:normal;font-feature-settings:normal;text-align:start;writing-mode:lr-tb;text-anchor:start;fill:#319f9b;fill-opacity:1;stroke-width:0.20908806"
         d="m -266.53028,137.25573 c -1.17251,2.14178 -2.17581,0.14252 -2.3052,-1.22964 -0.68129,0.39209 -1.92765,3.94387 -1.89482,1.46242 0.42975,-1.05888 0.17052,-2.10667 -0.79806,-0.80052 -0.33737,0.67479 -1.4268,3.56335 -1.56159,1.60586 0.52826,-1.14196 -0.42876,-4.13869 1.34488,-3.8138 -0.28337,0.87517 -1.22136,3.85458 0.21458,1.68977 0.27555,-1.11683 2.04523,-1.35173 1.83992,0.0954 0.66528,-2.03227 2.67776,-0.4489 1.827,1.1036 0.17792,1.34151 1.35172,-1.44262 1.33329,-0.11308 z"
         id="path8931"
         inkscape:connector-curvature="0"
         sodipodi:nodetypes="ccccccccccc" />
    </g>
  </g>
</svg>
