<?xml version="1.0" encoding="UTF-8" standalone="no"?>
<!-- Created with Inkscape (http://www.inkscape.org/) -->

<svg
   xmlns:dc="http://purl.org/dc/elements/1.1/"
   xmlns:cc="http://creativecommons.org/ns#"
   xmlns:rdf="http://www.w3.org/1999/02/22-rdf-syntax-ns#"
   xmlns:svg="http://www.w3.org/2000/svg"
   xmlns="http://www.w3.org/2000/svg"
   xmlns:sodipodi="http://sodipodi.sourceforge.net/DTD/sodipodi-0.dtd"
   xmlns:inkscape="http://www.inkscape.org/namespaces/inkscape"
   width="93.944496mm"
   height="28.410301mm"
   viewBox="0 0 112.7334 34.09236"
   version="1.1"
   id="svg8"
   inkscape:version="0.92.0 r15299"
   sodipodi:docname="danslo logo 2.svg">
  <defs
     id="defs2">
    <inkscape:path-effect
       effect="ruler"
       id="path-effect9128"
       is_visible="true"
       unit="px"
       mark_distance="20"
       mark_length="14"
       minor_mark_length="7"
       major_mark_steps="5"
       shift="0"
       offset="0"
       mark_dir="left"
       border_marks="both" />
    <inkscape:path-effect
       effect="powerstroke"
       id="path-effect9126"
       is_visible="true"
       offset_points=""
       sort_points="true"
       interpolator_type="CubicBezierFit"
       interpolator_beta="0.2"
       start_linecap_type="butt"
       linejoin_type="extrp_arc"
       miter_limit="4"
       end_linecap_type="butt" />
    <inkscape:path-effect
       effect="perspective-envelope"
       up_left_point="-321.2442,130.59928"
       up_right_point="-263.03379,130.59928"
       down_left_point="-321.2442,148.20303"
       down_right_point="-263.03379,148.20303"
       id="path-effect9124"
       is_visible="true"
       deform_type="perspective"
       horizontal_mirror="false"
       vertical_mirror="false"
       overflow_perspective="false" />
    <inkscape:path-effect
       effect="lattice2"
       gridpoint0="-321.2442,130.59928"
       gridpoint1="-263.03379,130.59928"
       gridpoint2="-321.2442,148.20303"
       gridpoint3="-263.03379,148.20303"
       gridpoint4="-306.69159,130.59928"
       gridpoint5="-277.58639,130.59928"
       gridpoint6="-306.69159,148.20303"
       gridpoint7="-277.58639,148.20303"
       gridpoint8x9="-292.13899,130.59928"
       gridpoint10x11="-292.13899,148.20303"
       gridpoint12="-321.2442,135.00022"
       gridpoint13="-263.03379,135.00022"
       gridpoint14="-321.2442,143.80209"
       gridpoint15="-263.03379,143.80209"
       gridpoint16="-306.69159,135.00022"
       gridpoint17="-277.58639,135.00022"
       gridpoint18="-306.69159,143.80209"
       gridpoint19="-277.58639,143.80209"
       gridpoint20x21="-292.13899,135.00022"
       gridpoint22x23="-292.13899,143.80209"
       gridpoint24x26="-321.2442,139.40115"
       gridpoint25x27="-263.03379,139.40115"
       gridpoint28x30="-306.69159,139.40115"
       gridpoint29x31="-277.58639,139.40115"
       gridpoint32x33x34x35="-292.13899,139.40115"
       id="path-effect9122"
       is_visible="true"
       horizontal_mirror="false"
       vertical_mirror="false"
       live_update="true" />
  </defs>
  <sodipodi:namedview
     id="base"
     pagecolor="#ffffff"
     bordercolor="#666666"
     borderopacity="1.0"
     inkscape:pageopacity="0.0"
     inkscape:pageshadow="2"
     inkscape:zoom="0.49497475"
     inkscape:cx="99.737784"
     inkscape:cy="27.89198"
     inkscape:document-units="mm"
     inkscape:current-layer="text3694-9"
     showgrid="false"
     showborder="true"
     inkscape:window-width="1920"
     inkscape:window-height="1017"
     inkscape:window-x="1912"
     inkscape:window-y="32"
     inkscape:window-maximized="1"
     scale-x="1.2"
     fit-margin-top="0"
     fit-margin-left="0"
     fit-margin-right="0"
     fit-margin-bottom="0" />
  <metadata
     id="metadata5">
    <rdf:RDF>
      <cc:Work
         rdf:about="">
        <dc:format>image/svg+xml</dc:format>
        <dc:type
           rdf:resource="http://purl.org/dc/dcmitype/StillImage" />
        <dc:title></dc:title>
      </cc:Work>
    </rdf:RDF>
  </metadata>
  <g
     inkscape:label="Layer 1"
     inkscape:groupmode="layer"
     id="layer1"
     transform="translate(-55.958239,-139.62846)">
    <g
       aria-label="Danny Slocum"
       style="font-style:normal;font-variant:normal;font-weight:normal;font-stretch:normal;font-size:10.58333302px;line-height:6.61458349px;font-family:'Viner Hand ITC';-inkscape-font-specification:'Viner Hand ITC, Normal';font-variant-ligatures:normal;font-variant-caps:normal;font-variant-numeric:normal;font-feature-settings:normal;text-align:start;letter-spacing:0px;word-spacing:0px;writing-mode:lr-tb;text-anchor:start;fill:#000000;fill-opacity:1;stroke:none;stroke-width:0.26458332"
       id="text3694-9">
      <path
         style="font-style:normal;font-variant:normal;font-weight:normal;font-stretch:normal;font-size:10.58333302px;font-family:'Viner Hand ITC';-inkscape-font-specification:'Viner Hand ITC, Normal';font-variant-ligatures:normal;font-variant-caps:normal;font-variant-numeric:normal;font-feature-settings:normal;text-align:start;writing-mode:lr-tb;text-anchor:start;fill:#319f9b;fill-opacity:1;stroke-width:0.64319772"
         d="m 63.924579,143.91592 c 1.214708,0.42332 2.384699,0.98065 3.466416,1.67809 1.454311,0.74786 2.778595,1.84957 3.485338,3.35806 1.660331,3.25624 0.323498,7.54052 -2.746485,9.4469 -1.790262,0.91844 -3.265895,2.32763 -5.026642,3.2963 -0.947779,0.83096 -2.574568,0.43428 -2.126252,-1.04467 1.74539,-5.42741 1.638428,-11.21454 2.947625,-16.73468 z m -3.857387,-4.28746 h 3.1e-4 c -0.04261,0.64452 0.07379,1.2898 0.293887,1.89459 0.656855,1.49614 1.117914,3.12233 0.899111,4.76946 0.128787,1.23938 0.128787,2.50337 -0.01356,3.74824 -0.290382,2.61994 -0.709958,5.22892 -1.029835,7.84191 -1.060937,2.83292 -3.131007,5.1734 -4.176839,8.01302 -0.472988,1.426 1.225689,0.66425 1.874836,0.45866 2.352724,-0.78847 3.718839,-3.09826 5.900615,-4.1904 1.207872,-0.4737 2.364305,-1.06539 3.418484,-1.83443 3.095876,-2.1409 5.870771,-5.41973 5.967798,-9.35313 0.168295,-2.12375 -1.050615,-4.02555 -2.41065,-5.54628 -2.823989,-3.01721 -6.684669,-5.01276 -10.72416,-5.80164 z"
         id="path8911"
         inkscape:connector-curvature="0" />
      <path
         style="font-style:normal;font-variant:normal;font-weight:normal;font-stretch:normal;font-size:10.58333302px;font-family:'Viner Hand ITC';-inkscape-font-specification:'Viner Hand ITC, Normal';font-variant-ligatures:normal;font-variant-caps:normal;font-variant-numeric:normal;font-feature-settings:normal;text-align:start;writing-mode:lr-tb;text-anchor:start;fill:#319f9b;fill-opacity:1;stroke-width:0.4049311"
         d="m 74.726497,156.48234 c 1.629868,1.45311 -0.984014,8.758 3.168384,5.34201 0.320051,2.18263 -4.001843,4.92466 -4.007304,0.63356 -0.229745,-4.31153 -4.068638,6.20438 -4.740753,1.67261 0.621181,-3.0438 1.334799,-8.10089 5.579673,-7.64818 z m -1.954297,1.30469 c -2.361478,0.82856 -3.004911,8.6996 -0.455578,3.46434 0.424301,-0.87085 2.259087,-3.02203 0.455578,-3.46434 z"
         id="path8913"
         inkscape:connector-curvature="0"
         sodipodi:nodetypes="cccccccc" />
      <path
         style="font-style:normal;font-variant:normal;font-weight:normal;font-stretch:normal;font-size:10.58333302px;font-family:'Viner Hand ITC';-inkscape-font-specification:'Viner Hand ITC, Normal';font-variant-ligatures:normal;font-variant-caps:normal;font-variant-numeric:normal;font-feature-settings:normal;text-align:start;writing-mode:lr-tb;text-anchor:start;fill:#319f9b;fill-opacity:1;stroke-width:0.4049311"
         d="m 81.558913,156.98605 c 1.568147,1.02964 -2.164016,7.16335 0.940013,3.19927 0.939877,-2.16454 5.565458,-3.63178 3.480844,0.2067 -1.791075,3.67819 4.738916,0.83305 1.108928,3.34571 -2.67293,2.84746 -3.519267,-0.78075 -2.209973,-2.91585 -1.255165,-4.26925 -4.338898,6.23905 -5.185351,3.13804 1.064016,-1.82628 0.771466,-5.4565 -0.581829,-4.80275 0.749001,-0.7971 1.663392,-1.41172 2.447368,-2.17112 z"
         id="path8915"
         inkscape:connector-curvature="0"
         sodipodi:nodetypes="cccccccc" />
      <path
         style="font-style:normal;font-variant:normal;font-weight:normal;font-stretch:normal;font-size:10.58333302px;font-family:'Viner Hand ITC';-inkscape-font-specification:'Viner Hand ITC, Normal';font-variant-ligatures:normal;font-variant-caps:normal;font-variant-numeric:normal;font-feature-settings:normal;text-align:start;writing-mode:lr-tb;text-anchor:start;fill:#319f9b;fill-opacity:1;stroke-width:0.4049311"
         d="m 91.799958,156.98605 c 1.568205,1.02962 -2.164055,7.16337 0.940013,3.19927 0.939897,-2.16459 5.565574,-3.63171 3.480767,0.20676 -1.79125,3.67821 4.739102,0.83294 1.109005,3.34563 -2.672969,2.84746 -3.51919,-0.78067 -2.210148,-2.91587 -1.255106,-4.26916 -4.338936,6.23893 -5.185177,3.13806 1.064211,-1.82625 0.771679,-5.4565 -0.581673,-4.80273 0.748981,-0.79708 1.663333,-1.41166 2.447213,-2.17112 z"
         id="path8917"
         inkscape:connector-curvature="0"
         sodipodi:nodetypes="cccccccc" />
      <path
         style="font-style:normal;font-variant:normal;font-weight:normal;font-stretch:normal;font-size:10.58333302px;font-family:'Viner Hand ITC';-inkscape-font-specification:'Viner Hand ITC, Normal';font-variant-ligatures:normal;font-variant-caps:normal;font-variant-numeric:normal;font-feature-settings:normal;text-align:start;writing-mode:lr-tb;text-anchor:start;fill:#319f9b;fill-opacity:1;stroke-width:0.4049311"
         d="m 104.73006,169.38898 c 0.28769,2.11839 -3.62853,7.07703 -1.50315,2.36246 1.09861,-2.87868 3.85917,-9.33734 1.81755,-10.4335 -1.02621,2.91962 -6.520189,4.37217 -4.33607,-0.22475 1.30676,-2.45194 -2.800808,-1.60479 -0.0354,-3.25451 4.6775,-3.65791 -0.792441,6.91027 3.13492,3.73011 0.98223,-1.55769 4.94629,-6.75377 3.66484,-1.62315 -0.8261,3.17141 -1.53191,6.3885 -2.74274,9.44334 z"
         id="path8919"
         inkscape:connector-curvature="0"
         sodipodi:nodetypes="ccccccccc" />
      <path
         style="font-style:normal;font-variant:normal;font-weight:normal;font-stretch:normal;font-size:10.58333302px;font-family:'Viner Hand ITC';-inkscape-font-specification:'Viner Hand ITC, Normal';font-variant-ligatures:normal;font-variant-caps:normal;font-variant-numeric:normal;font-feature-settings:normal;text-align:start;writing-mode:lr-tb;text-anchor:start;fill:#319f9b;fill-opacity:1;stroke-width:0.64319772"
         d="m 122.63913,142.03446 c 4.22928,1.03019 -0.58225,10.44949 -1.86054,4.30931 -2.38795,0.66993 -9.02225,5.69477 -3.08922,5.92203 4.32992,-0.80103 9.20736,3.82075 5.95024,7.88546 -2.6055,3.07992 -7.74123,5.69757 -11.58882,3.55008 -1.16354,-2.44402 2.68002,-3.77963 2.05115,-0.47745 4.05167,0.71277 10.6929,-3.54359 7.47757,-8.10931 -1.46758,-3.62301 -10.82612,1.01121 -7.98591,-4.29745 3.12911,-2.80995 5.79244,-6.10613 9.04553,-8.78267 z"
         id="path8921"
         inkscape:connector-curvature="0"
         sodipodi:nodetypes="ccccccccc" />
      <path
         style="font-style:normal;font-variant:normal;font-weight:normal;font-stretch:normal;font-size:10.58333302px;font-family:'Viner Hand ITC';-inkscape-font-specification:'Viner Hand ITC, Normal';font-variant-ligatures:normal;font-variant-caps:normal;font-variant-numeric:normal;font-feature-settings:normal;text-align:start;writing-mode:lr-tb;text-anchor:start;fill:#319f9b;fill-opacity:1;stroke-width:0.4049311"
         d="m 130.50692,161.08083 c -1.05369,2.44913 -6.17972,3.64585 -4.20397,-0.45596 1.30773,-2.52614 0.92808,-5.6314 1.11205,-7.7636 1.80325,-2.46302 3.29922,-0.88019 1.72366,1.27401 -1.07922,2.68005 -2.97091,9.29204 1.36826,6.94544 z"
         id="path8923"
         inkscape:connector-curvature="0"
         sodipodi:nodetypes="cccccc" />
      <path
         style="font-style:normal;font-variant:normal;font-weight:normal;font-stretch:normal;font-size:10.58333302px;font-family:'Viner Hand ITC';-inkscape-font-specification:'Viner Hand ITC, Normal';font-variant-ligatures:normal;font-variant-caps:normal;font-variant-numeric:normal;font-feature-settings:normal;text-align:start;writing-mode:lr-tb;text-anchor:start;fill:#319f9b;fill-opacity:1;stroke-width:0.4049311"
         d="m 135.88499,155.59778 c 4.51473,1.46626 -2.03829,9.76736 -3.70813,7.35597 -1.05705,-2.79759 0.24415,-7.19413 3.70813,-7.35597 z m -0.46964,1.47813 c -4.01681,-0.1559 -1.3231,7.86314 0.16462,2.56841 -0.20765,-0.69046 0.91185,-2.34775 -0.16462,-2.56841 z"
         id="path8925"
         inkscape:connector-curvature="0"
         sodipodi:nodetypes="cccccc" />
      <path
         style="font-style:normal;font-variant:normal;font-weight:normal;font-stretch:normal;font-size:10.58333302px;font-family:'Viner Hand ITC';-inkscape-font-specification:'Viner Hand ITC, Normal';font-variant-ligatures:normal;font-variant-caps:normal;font-variant-numeric:normal;font-feature-settings:normal;text-align:start;writing-mode:lr-tb;text-anchor:start;fill:#319f9b;fill-opacity:1;stroke-width:0.4049311"
         d="m 144.27023,162.14607 c -2.14722,3.31276 -7.93067,1.77907 -5.89081,-2.5124 -0.80782,-2.38522 4.94631,-5.72982 4.02171,-3.08153 -3.7648,0.66702 -3.19124,8.60376 0.96941,5.278 0.26486,-0.12239 0.95715,-0.20892 0.89969,0.31593 z"
         id="path8927"
         inkscape:connector-curvature="0"
         sodipodi:nodetypes="ccccc" />
      <path
         style="font-style:normal;font-variant:normal;font-weight:normal;font-stretch:normal;font-size:10.58333302px;font-family:'Viner Hand ITC';-inkscape-font-specification:'Viner Hand ITC, Normal';font-variant-ligatures:normal;font-variant-caps:normal;font-variant-numeric:normal;font-feature-settings:normal;text-align:start;writing-mode:lr-tb;text-anchor:start;fill:#319f9b;fill-opacity:1;stroke-width:0.4049311"
         d="m 148.80752,155.38308 c -0.99848,1.85882 -2.10163,9.24781 1.12957,4.43172 0.79721,-1.4062 4.93498,-5.50069 3.45716,-1.25838 1.22784,1.63477 -1.46161,7.08221 -1.36357,3.17025 0.38318,-4.26949 -2.55035,-0.50123 -3.28075,1.21631 -4.70396,2.87936 -1.3221,-3.63103 -2.25059,-5.54198 -3.65952,0.20797 1.70069,-1.60131 2.30818,-2.01792 z"
         id="path8929"
         inkscape:connector-curvature="0"
         sodipodi:nodetypes="ccccccc" />
      <path
         style="font-style:normal;font-variant:normal;font-weight:normal;font-stretch:normal;font-size:10.58333302px;font-family:'Viner Hand ITC';-inkscape-font-specification:'Viner Hand ITC, Normal';font-variant-ligatures:normal;font-variant-caps:normal;font-variant-numeric:normal;font-feature-settings:normal;text-align:start;writing-mode:lr-tb;text-anchor:start;fill:#319f9b;fill-opacity:1;stroke-width:0.4049311"
         d="m 168.69122,161.3038 c -2.27074,4.14788 -4.21379,0.27601 -4.46437,-2.38139 -1.31943,0.75934 -3.73319,7.63791 -3.66961,2.8322 0.83227,-2.05068 0.33024,-4.07989 -1.54557,-1.55033 -0.65337,1.30684 -2.76322,6.90098 -3.02426,3.11 1.02306,-2.21158 -0.83036,-8.01521 2.60457,-7.38601 -0.54879,1.6949 -2.36535,7.46498 0.41557,3.2725 0.53364,-2.16292 3.9609,-2.61784 3.56328,0.18475 1.28842,-3.9358 5.1859,-0.86936 3.53827,2.13729 0.34457,2.59804 2.61781,-2.79385 2.58212,-0.21899 z"
         id="path8931"
         inkscape:connector-curvature="0"
         sodipodi:nodetypes="ccccccccccc" />
    </g>
  </g>
</svg>
